<svg width="16" height="16" viewBox="0 0 16 16" fill="none" xmlns="http://www.w3.org/2000/svg">
<path d="M11.9324 10.3414L9.54595 7.95489L11.9324 5.56841C12.2253 5.27557 12.2253 4.80059 11.9324 4.50775L11.4021 3.97742C11.1093 3.68458 10.6343 3.68458 10.3414 3.97742L7.95496 6.3639L5.56847 3.97742C5.27563 3.68458 4.80065 3.68458 4.50781 3.97742L3.97748 4.50775C3.68464 4.80059 3.68464 5.27557 3.97748 5.56841L6.36397 7.95489L3.97748 10.3414C3.68464 10.6342 3.68464 11.1092 3.97748 11.402L4.50781 11.9324C4.80065 12.2252 5.27563 12.2252 5.56847 11.9324L7.95496 9.54588L10.3414 11.9324C10.6343 12.2252 11.1093 12.2252 11.4021 11.9324L11.9324 11.402C12.2253 11.1092 12.2253 10.6342 11.9324 10.3414Z" fill="#49B4BB"/>
</svg>
