<svg width="11" height="12" viewBox="0 0 11 12" fill="none" xmlns="http://www.w3.org/2000/svg">
<g clip-path="url(#clip0)">
<path d="M9.75 4.875H6.375V1.5C6.375 1.08586 6.03914 0.75 5.625 0.75H4.875C4.46086 0.75 4.125 1.08586 4.125 1.5V4.875H0.75C0.335859 4.875 0 5.21086 0 5.625V6.375C0 6.78914 0.335859 7.125 0.75 7.125H4.125V10.5C4.125 10.9141 4.46086 11.25 4.875 11.25H5.625C6.03914 11.25 6.375 10.9141 6.375 10.5V7.125H9.75C10.1641 7.125 10.5 6.78914 10.5 6.375V5.625C10.5 5.21086 10.1641 4.875 9.75 4.875Z" fill="white"/>
</g>
<defs>
<clipPath id="clip0">
<rect width="10.5" height="12" fill="white"/>
</clipPath>
</defs>
</svg>
