<svg width="26" height="18" viewBox="0 0 26 18" fill="none" xmlns="http://www.w3.org/2000/svg">
<path d="M25.843 8.31562C23.3951 3.35578 18.549 0 13 0C7.45111 0 2.60365 3.35813 0.15712 8.31609C0.0538608 8.52821 6.10352e-05 8.76256 6.10352e-05 9.00023C6.10352e-05 9.23791 0.0538608 9.47226 0.15712 9.68438C2.605 14.6442 7.45111 18 13 18C18.549 18 23.3964 14.6419 25.843 9.68391C25.9462 9.47179 26 9.23744 26 8.99977C26 8.76209 25.9462 8.52774 25.843 8.31562ZM13 15.75C11.7145 15.75 10.4577 15.3541 9.38883 14.6124C8.31991 13.8707 7.48679 12.8165 6.99482 11.5831C6.50285 10.3497 6.37413 8.99251 6.62493 7.68314C6.87574 6.37377 7.4948 5.17103 8.40384 4.22703C9.31288 3.28302 10.4711 2.64015 11.7319 2.3797C12.9928 2.11925 14.2998 2.25292 15.4875 2.76381C16.6752 3.2747 17.6904 4.13987 18.4046 5.2499C19.1188 6.35993 19.5 7.66498 19.5 9C19.5005 9.88654 19.3326 10.7645 19.0061 11.5836C18.6796 12.4028 18.2008 13.1471 17.5972 13.7739C16.9935 14.4008 16.2768 14.898 15.488 15.2371C14.6992 15.5761 13.8537 15.7504 13 15.75ZM13 4.5C12.6133 4.50561 12.229 4.56537 11.8576 4.67766C12.1637 5.10969 12.3106 5.64135 12.2717 6.17622C12.2327 6.71109 12.0104 7.21376 11.6452 7.59305C11.2799 7.97234 10.7959 8.20314 10.2808 8.24361C9.76578 8.28407 9.25381 8.13151 8.83778 7.81359C8.60087 8.71996 8.64364 9.68066 8.96005 10.5605C9.27647 11.4403 9.85059 12.1949 10.6016 12.7181C11.3527 13.2413 12.2428 13.5068 13.1467 13.4771C14.0507 13.4475 14.9229 13.1242 15.6406 12.5528C16.3583 11.9814 16.8855 11.1907 17.1478 10.2919C17.4101 9.39308 17.3944 8.43149 17.1028 7.54246C16.8113 6.65342 16.2587 5.8817 15.5227 5.33593C14.7867 4.79015 13.9044 4.49779 13 4.5Z" fill="#A8A8A8"/>
</svg>
