<svg width="181" height="50" viewBox="0 0 181 50" fill="none" xmlns="http://www.w3.org/2000/svg">
<path d="M50 44.4444C50 45.9179 49.4147 47.3309 48.3728 48.3728C47.3309 49.4147 45.9179 50 44.4444 50H5.55556C4.08213 50 2.66905 49.4147 1.62718 48.3728C0.585316 47.3309 0 45.9179 0 44.4444V5.55556C0 4.08213 0.585316 2.66905 1.62718 1.62718C2.66905 0.585316 4.08213 0 5.55556 0L44.4444 0C45.9179 0 47.3309 0.585316 48.3728 1.62718C49.4147 2.66905 50 4.08213 50 5.55556V44.4444Z" fill="#49B4BB"/>
<path d="M25 9.72222C26.9177 9.72222 28.4722 8.16765 28.4722 6.24999C28.4722 4.33234 26.9177 2.77777 25 2.77777C23.0824 2.77777 21.5278 4.33234 21.5278 6.24999C21.5278 8.16765 23.0824 9.72222 25 9.72222Z" fill="white"/>
<path d="M24.2667 25.375C28.5903 25.0736 37.5903 24.4472 37.5903 20.3778C37.5903 16.2208 28.7833 15.9125 25.0222 15.7806L24.5986 15.7653C10.2736 15.1611 12.7333 11.7333 14.0861 11.7333C14.4667 12.075 15.7375 13.0528 17.85 13.0528C18.575 13.0528 19.332 12.9361 20.1 12.7042C20.1638 12.6868 20.2206 12.6501 20.2626 12.5991C20.3047 12.5481 20.3299 12.4853 20.3347 12.4194C20.336 12.3535 20.3168 12.2889 20.2797 12.2344C20.2426 12.1799 20.1895 12.1383 20.1278 12.1153L18.0986 11.3139L21.2542 10.6903C21.3073 10.6807 21.3573 10.6584 21.3998 10.6253C21.4424 10.5921 21.4763 10.5491 21.4986 10.5C21.519 10.4521 21.5265 10.3998 21.5204 10.3482C21.5143 10.2965 21.4948 10.2474 21.4639 10.2056C21.3917 10.1111 19.7014 7.70139 16.8042 7.70139C12.8472 7.70139 9.66389 9.76111 9.66389 13.3111C9.66389 17.6028 19.8333 18.8069 24.3819 18.8069C33.0931 18.8069 33.5347 19.9722 33.5347 20.2056C33.5347 21.4347 30.4417 22.175 24.3403 22.4069C17.8236 22.6542 13.6125 24.4917 13.6125 27.0889C13.6125 29.5361 16.7681 30.993 24.1653 31.9611C27.5319 32.4014 31.5458 33.1417 31.5458 34.1653C31.5444 34.1778 31.1917 35.5306 24.2806 36.3944C17.8236 37.2042 16.9944 38.7236 16.9944 39.9555C16.9944 41.6236 19.3514 42.7639 24.4125 43.5417C28.2722 44.1347 29.3542 45.5097 29.8736 46.1708C30.0931 46.4486 30.2667 46.6694 30.5667 46.6694C30.5944 46.6694 30.6639 46.6611 30.6903 46.6555C30.9778 46.5889 31.1361 46.2833 31.1153 45.8361C31.1014 45.5042 30.7972 42.5625 24.8361 41.6625C21.1181 41.1014 20.8306 40.2069 20.8306 39.9458C20.8306 39.8153 20.9972 39.1403 24.2403 38.6861C24.6903 38.6528 35.2958 37.8167 35.2958 34.075C35.2958 30.9972 29.0986 29.8764 23.6319 28.8903C20.8764 28.3917 17.4472 27.7722 17.4472 27.1222C17.4486 26.5417 18.6306 25.7667 24.2667 25.375Z" fill="white"/>
<path d="M17.093 10.1972C17.676 10.1972 18.1486 9.92238 18.1486 9.58334C18.1486 9.2443 17.676 8.96945 17.093 8.96945C16.5101 8.96945 16.0375 9.2443 16.0375 9.58334C16.0375 9.92238 16.5101 10.1972 17.093 10.1972Z" fill="#49B4BB"/>
<path d="M22.2222 34.175H23.6111V39.5528H22.2222V34.175ZM26.3889 34.175H27.7778V39.5528H26.3889V34.175ZM22.2222 20.9375H23.6111V26.3153H22.2222V20.9375ZM26.3889 20.9375H27.7778V26.3153H26.3889V20.9375Z" fill="#49B4BB"/>
<path d="M23.6111 27.5139L26.3889 28.0403V16.1778L23.6111 16.0611V27.5139ZM26.3889 30.2625L23.6111 29.75V40.1069C24.3583 40.1972 25.6083 40.4917 26.3889 40.6875V30.2625ZM23.6111 42.1319V45.8333C23.6111 46.2017 23.7574 46.555 24.0179 46.8154C24.2784 47.0759 24.6316 47.2222 25 47.2222C25.3683 47.2222 25.7216 47.0759 25.9821 46.8154C26.2426 46.555 26.3889 46.2017 26.3889 45.8333V42.6986C25.1833 42.4222 24.4139 42.3125 23.6111 42.1319ZM26.3889 14.4972V7.40279C26.3889 7.03443 26.2426 6.68116 25.9821 6.4207C25.7216 6.16023 25.3683 6.0139 25 6.0139C24.6316 6.0139 24.2784 6.16023 24.0179 6.4207C23.7574 6.68116 23.6111 7.03443 23.6111 7.40279V14.3695L26.3889 14.4972Z" fill="white"/>
<path d="M68.7982 13.7853L74.8072 30.7519L80.7841 13.7853H87.1144V37.1787H82.2783V30.7841L82.7603 19.7461L76.446 37.1787H73.1362L66.838 19.7622L67.3201 30.7841V37.1787H62.5V13.7853H68.7982Z" fill="#444444"/>
<path d="M99.0199 37.5C96.4707 37.5 94.3927 36.7181 92.786 35.1542C91.19 33.5904 90.392 31.5071 90.392 28.9042V28.4544C90.392 26.7084 90.7294 25.15 91.4042 23.7789C92.0791 22.3972 93.0323 21.3368 94.2641 20.5977C95.5066 19.8479 96.9205 19.473 98.5058 19.473C100.884 19.473 102.753 20.2228 104.113 21.7224C105.484 23.2219 106.17 25.3481 106.17 28.1009V29.9968H95.0996C95.2496 31.1322 95.6994 32.0426 96.4492 32.7281C97.2097 33.4137 98.1684 33.7564 99.3252 33.7564C101.114 33.7564 102.512 33.1084 103.519 31.8123L105.8 34.367C105.104 35.3524 104.161 36.1236 102.972 36.6806C101.783 37.2269 100.466 37.5 99.0199 37.5ZM98.4897 23.2326C97.5686 23.2326 96.8188 23.5433 96.2404 24.1645C95.6727 24.7858 95.3085 25.6748 95.1478 26.8316H101.607V26.4621C101.585 25.4338 101.307 24.6412 100.771 24.0842C100.236 23.5165 99.4752 23.2326 98.4897 23.2326Z" fill="#444444"/>
<path d="M108.098 28.358C108.098 25.648 108.703 23.4897 109.913 21.883C111.134 20.2764 112.8 19.473 114.91 19.473C116.602 19.473 118 20.105 119.103 21.3689V12.5H123.763V37.1787H119.569L119.344 35.331C118.188 36.777 116.699 37.5 114.878 37.5C112.832 37.5 111.188 36.6967 109.945 35.09C108.714 33.4726 108.098 31.2286 108.098 28.358ZM112.741 28.6954C112.741 30.3235 113.025 31.5713 113.593 32.4389C114.16 33.3066 114.985 33.7404 116.067 33.7404C117.502 33.7404 118.514 33.1352 119.103 31.9248V25.0643C118.525 23.8539 117.524 23.2487 116.099 23.2487C113.86 23.2487 112.741 25.0643 112.741 28.6954Z" fill="#444444"/>
<path d="M132.262 37.1787H127.603V19.7943H132.262V37.1787ZM127.33 15.2956C127.33 14.5994 127.56 14.0263 128.021 13.5765C128.492 13.1266 129.129 12.9017 129.933 12.9017C130.725 12.9017 131.357 13.1266 131.828 13.5765C132.3 14.0263 132.535 14.5994 132.535 15.2956C132.535 16.0026 132.294 16.581 131.812 17.0308C131.341 17.4807 130.714 17.7057 129.933 17.7057C129.151 17.7057 128.519 17.4807 128.037 17.0308C127.565 16.581 127.33 16.0026 127.33 15.2956Z" fill="#444444"/>
<path d="M143.332 33.7564C144.189 33.7564 144.885 33.5208 145.421 33.0495C145.957 32.5782 146.235 31.9516 146.256 31.1697H150.611C150.6 32.3479 150.278 33.4297 149.647 34.4152C149.015 35.3899 148.147 36.1504 147.044 36.6967C145.951 37.2322 144.741 37.5 143.413 37.5C140.928 37.5 138.967 36.7127 137.532 35.1382C136.097 33.5529 135.379 31.3678 135.379 28.5829V28.2776C135.379 25.5998 136.091 23.4629 137.516 21.867C138.941 20.271 140.895 19.473 143.38 19.473C145.555 19.473 147.295 20.0943 148.602 21.3368C149.92 22.5686 150.589 24.2127 150.611 26.2693H146.256C146.235 25.3695 145.957 24.6412 145.421 24.0842C144.885 23.5165 144.178 23.2326 143.3 23.2326C142.218 23.2326 141.399 23.629 140.842 24.4216C140.296 25.2035 140.022 26.4781 140.022 28.2455V28.7275C140.022 30.5163 140.296 31.8016 140.842 32.5835C141.388 33.3655 142.218 33.7564 143.332 33.7564Z" fill="#444444"/>
<path d="M163.335 37.1787C163.121 36.7609 162.966 36.2414 162.87 35.6202C161.745 36.8734 160.283 37.5 158.483 37.5C156.78 37.5 155.366 37.0073 154.242 36.0219C153.128 35.0364 152.571 33.7939 152.571 32.2943C152.571 30.452 153.251 29.0381 154.611 28.0527C155.982 27.0673 157.958 26.5692 160.54 26.5585H162.677V25.5623C162.677 24.759 162.468 24.1163 162.05 23.6343C161.643 23.1523 160.995 22.9113 160.106 22.9113C159.324 22.9113 158.708 23.0988 158.258 23.4737C157.819 23.8485 157.6 24.3627 157.6 25.0161H152.956C152.956 24.0092 153.267 23.0773 153.888 22.2204C154.509 21.3635 155.388 20.6941 156.523 20.2121C157.659 19.7194 158.933 19.473 160.347 19.473C162.489 19.473 164.187 20.0139 165.44 21.0958C166.704 22.1669 167.336 23.6772 167.336 25.6266V33.162C167.347 34.8115 167.577 36.0593 168.027 36.9055V37.1787H163.335ZM159.496 33.9492C160.181 33.9492 160.813 33.7993 161.391 33.4994C161.97 33.1887 162.398 32.7764 162.677 32.2622V29.2738H160.942C158.617 29.2738 157.38 30.0771 157.23 31.6838L157.214 31.9569C157.214 32.5353 157.418 33.012 157.825 33.3869C158.232 33.7618 158.789 33.9492 159.496 33.9492Z" fill="#444444"/>
<path d="M180.672 24.1485C180.04 24.0628 179.483 24.0199 179.001 24.0199C177.244 24.0199 176.093 24.6144 175.546 25.8033V37.1787H170.903V19.7943H175.289L175.418 21.867C176.35 20.271 177.64 19.473 179.29 19.473C179.804 19.473 180.286 19.5426 180.736 19.6819L180.672 24.1485Z" fill="#444444"/>
</svg>
